<svg xmlns="http://www.w3.org/2000/svg" width="760" height="380" viewBox="0 0 760 380" role="img" aria-label="Customers verify their identity once, and a reusable credential skips it next time">
  <style>
/* crisp-diagrams theme: pastel: flat soft fills per group. Swap themes with scripts/theme.py; never edit a diagram's colors by hand. */
svg{--ink:#0b0b0b;--quiet:#52514e;--edge:#c3c2b7;--grid:rgba(11,11,11,.1);--accent:#2a78d6;--tint:rgba(137,135,129,.15);--paper:#ffffff;--blue:#dfeafc;--blue-line:#93b8ec;--green:#dcf1e3;--green-line:#8fcaa1;--violet:#e9e3fb;--violet-line:#b4a3ec;--amber:#fcecd0;--amber-line:#e3b766;--rose:#fbe1e7;--rose-line:#e89fb0;--teal:#d8f0ee;--teal-line:#84c7c1;--screen:#f7f6f3;--ui:#e4e2db;--island:#0b0b0b;--blue-ink:#2f6db5;--green-ink:#2f7d4f;--violet-ink:#6450b8;--amber-ink:#94620f;--rose-ink:#b04760;--teal-ink:#1f7a73}
text{font-family:ui-sans-serif,system-ui,-apple-system,"Segoe UI",Roboto,"Helvetica Neue",Arial,sans-serif;font-size:13px;fill:var(--ink)}
.title{font-size:15px;font-weight:600}
.name{font-weight:600}
.note{font-size:11.5px;fill:var(--quiet)}
.small{font-size:11.5px}
.strong{font-weight:600}
.mid{text-anchor:middle}
.end{text-anchor:end}
.line{fill:none;stroke:var(--edge);stroke-width:1.25}
.life{fill:none;stroke:var(--grid);stroke-width:1.25;stroke-dasharray:4 4}
.head{fill:var(--edge)}
.box{fill:var(--paper);stroke:var(--edge);stroke-width:1.25}
.key{fill:var(--accent);fill-opacity:.16;stroke:var(--accent);stroke-width:2}
.chip{fill:var(--tint);stroke:var(--edge);stroke-width:1}
.callout{fill:var(--tint);stroke:var(--edge);stroke-width:1.25}
.box.zone{fill:none}
.box.blue,.chip.blue{fill:var(--blue);stroke:var(--blue-line)}
.box.green,.chip.green{fill:var(--green);stroke:var(--green-line)}
.box.violet,.chip.violet{fill:var(--violet);stroke:var(--violet-line)}
.box.amber,.chip.amber{fill:var(--amber);stroke:var(--amber-line)}
.box.rose,.chip.rose{fill:var(--rose);stroke:var(--rose-line)}
.box.teal,.chip.teal{fill:var(--teal);stroke:var(--teal-line)}
.box.zone.blue{fill:none;stroke:var(--blue-line)}
.box.zone.green{fill:none;stroke:var(--green-line)}
.box.zone.violet{fill:none;stroke:var(--violet-line)}
.box.zone.amber{fill:none;stroke:var(--amber-line)}
.box.zone.rose{fill:none;stroke:var(--rose-line)}
.box.zone.teal{fill:none;stroke:var(--teal-line)}
/* device mockups and glyphs (references/visuals.md) */
.device{fill:var(--paper);stroke:var(--quiet);stroke-width:1.5}
.screen{fill:var(--screen)}
.ui{fill:var(--ui)}
.field{fill:var(--paper);stroke:var(--edge);stroke-width:1}
.btn{fill:var(--ink)}
.island{fill:var(--island)}
.glyph{fill:none;stroke:var(--quiet);stroke-width:1.5;stroke-linecap:round;stroke-linejoin:round}
.tick{fill:none;stroke:var(--paper);stroke-width:1.5;stroke-linecap:round;stroke-linejoin:round}
.uitext{font-size:10px}
.uinote{font-size:10px;fill:var(--quiet)}
.btn-text{font-size:10px;font-weight:600;fill:var(--paper)}
.inv{fill:var(--paper)}
.code{font-family:ui-monospace,SFMono-Regular,Menlo,Consolas,monospace}
.device.blue{fill:var(--blue);stroke:var(--blue-line)}
.device.green{fill:var(--green);stroke:var(--green-line)}
.device.violet{fill:var(--violet);stroke:var(--violet-line)}
.device.amber{fill:var(--amber);stroke:var(--amber-line)}
.device.rose{fill:var(--rose);stroke:var(--rose-line)}
.device.teal{fill:var(--teal);stroke:var(--teal-line)}
/* icons (scripts/icons.py) */
.icon{fill:none;stroke:var(--quiet);stroke-width:1.6;stroke-linecap:round;stroke-linejoin:round}
.icon.accent{stroke:var(--accent)}
.badge{fill:var(--tint)}
.badge.blue{fill:var(--paper);stroke:var(--blue-line);stroke-width:1}
.icon.blue{stroke:var(--blue-ink)}
.badge.green{fill:var(--paper);stroke:var(--green-line);stroke-width:1}
.icon.green{stroke:var(--green-ink)}
.badge.violet{fill:var(--paper);stroke:var(--violet-line);stroke-width:1}
.icon.violet{stroke:var(--violet-ink)}
.badge.amber{fill:var(--paper);stroke:var(--amber-line);stroke-width:1}
.icon.amber{stroke:var(--amber-ink)}
.badge.rose{fill:var(--paper);stroke:var(--rose-line);stroke-width:1}
.icon.rose{stroke:var(--rose-ink)}
.badge.teal{fill:var(--paper);stroke:var(--teal-line);stroke-width:1}
.icon.teal{stroke:var(--teal-ink)}
</style>
  <defs>
    <marker id="kyc-onboarding-b-arrow" viewBox="0 0 10 10" refX="9" refY="5" markerWidth="6" markerHeight="6" orient="auto-start-reverse">
      <path class="head" d="M0 0L10 5L0 10z"/>
    </marker>
  </defs>
  <text class="title" x="24" y="34">Customers verify their identity once, and a reusable credential skips it next time</text>
  <text class="note" x="24" y="54">Onboarding with an identity check that issues a verifiable credential</text>
  <rect class="box violet" x="24" y="76" width="160" height="108" rx="8"/>
  <rect class="badge violet" x="36" y="88" width="32" height="32" rx="9"/><g class="icon violet" transform="translate(42 94) scale(0.833333)"><rect x="3" y="5.5" width="18" height="13" rx="2"/><path d="M3.5 7l8.5 6 8.5-6"/></g>
  <text class="name" x="36" y="140">Sign up</text>
  <text class="note" x="36" y="156">Email and phone number</text>
  <rect class="box teal" x="208" y="76" width="160" height="108" rx="8"/>
  <rect class="badge teal" x="220" y="88" width="32" height="32" rx="9"/><g class="icon teal" transform="translate(226 94) scale(0.833333)"><rect x="3" y="5" width="18" height="14" rx="2"/><circle cx="8.5" cy="11" r="2"/><path d="M5.5 16c.5-1.5 1.7-2.3 3-2.3s2.5.8 3 2.3M14 10h4M14 13.5h4"/></g>
  <text class="name" x="220" y="140">ID check</text>
  <text class="note" x="220" y="156">Document photo and a</text>
  <text class="note" x="220" y="172">selfie</text>
  <g class="line"><path d="M184 130H208" marker-end="url(#kyc-onboarding-b-arrow)"/></g>
  <rect class="key" x="392" y="76" width="160" height="108" rx="8"/>
  <g class="icon accent" transform="translate(410 94) scale(0.833333)"><rect x="5" y="10.5" width="14" height="10" rx="2"/><path d="M8 10.5V7.5a4 4 0 0 1 8 0v3"/></g>
  <text class="name" x="404" y="140">Credential issued</text>
  <text class="note" x="404" y="156">Saved in the</text>
  <text class="note" x="404" y="172">customer's wallet</text>
  <g class="line"><path d="M368 130H392" marker-end="url(#kyc-onboarding-b-arrow)"/></g>
  <rect class="box green" x="576" y="76" width="160" height="108" rx="8"/>
  <rect class="badge green" x="588" y="88" width="32" height="32" rx="9"/><g class="icon green" transform="translate(594 94) scale(0.833333)"><rect x="3" y="5" width="18" height="14" rx="2"/><circle cx="8.5" cy="11" r="2"/><path d="M5.5 16c.5-1.5 1.7-2.3 3-2.3s2.5.8 3 2.3M14 10h4M14 13.5h4"/></g>
  <text class="name" x="588" y="140">Account open</text>
  <text class="note" x="588" y="156">Ready to use right</text>
  <text class="note" x="588" y="172">away</text>
  <g class="line"><path d="M552 130H576" marker-end="url(#kyc-onboarding-b-arrow)"/></g>
  <g class="line"><path d="M288 184V248" marker-end="url(#kyc-onboarding-b-arrow)"/></g>
  <text class="note" x="296" y="204">check fails</text>
  <rect class="box rose" x="208" y="248" width="160" height="108" rx="8"/>
  <rect class="badge rose" x="220" y="260" width="32" height="32" rx="9"/><g class="icon rose" transform="translate(226 266) scale(0.833333)"><circle cx="12" cy="12" r="9"/><path d="M8 12.5l3 3 5.5-6"/></g>
  <text class="name" x="220" y="312">Manual review</text>
  <text class="note" x="220" y="328">A person decides</text>
  <text class="note" x="220" y="344">within a day</text>
  <g class="line"><path d="M368 302H656V184" marker-end="url(#kyc-onboarding-b-arrow)"/></g>
</svg>
